<svg id="_1-Facebook" data-name="1-Facebook" xmlns="http://www.w3.org/2000/svg" width="48" height="48" viewBox="0 0 48 48"><title>1-Facebook</title><path d="M24,0A24,24,0,1,0,48,24,24.028,24.028,0,0,0,24,0Zm4,45.629V31h5a1,1,0,0,0,.961-.725l2-7A1,1,0,0,0,35,22H28V16h6a1,1,0,0,0,1-1V8a1,1,0,0,0-1-1H22a3.887,3.887,0,0,0-4,4V22H13a1,1,0,0,0-1,1v7a1,1,0,0,0,1,1h5V42a1,1,0,0,0,2,0V30a1,1,0,0,0-1-1H14V24h5a1,1,0,0,0,1-1V11a1.882,1.882,0,0,1,2-2H33v5H27a1,1,0,0,0-1,1v8a1,1,0,0,0,1,1h6.674l-1.428,5H27a1,1,0,0,0-1,1V45.905c-.659.06-1.325.095-2,.095a22.026,22.026,0,1,1,4-.371Z"/></svg>