<svg xmlns="http://www.w3.org/2000/svg" width="48" height="48" viewBox="0 0 48 48"><title>10-Safari</title><g id="_10-Safari" data-name="10-Safari"><path d="M24,0A24,24,0,1,0,48,24,24.028,24.028,0,0,0,24,0Zm0,46A22,22,0,1,1,46,24,22.025,22.025,0,0,1,24,46Z"/><path d="M17.636,31.364a1,1,0,0,0,.447-.106l8.485-4.242a1,1,0,0,0,.448-.448l4.243-8.485a1,1,0,0,0-1.342-1.341l-8.485,4.242a1,1,0,0,0-.448.448l-4.243,8.485a1,1,0,0,0,.895,1.447Zm8.211-6.931-2.28-2.28,4.561-2.28Zm-3.694-.866,2.28,2.28-4.561,2.28Z"/><path d="M24,5a1,1,0,0,0,0,2A17,17,0,1,1,7,24a1,1,0,0,0-2,0A19,19,0,1,0,24,5Z"/></g></svg>