<svg xmlns="http://www.w3.org/2000/svg" width="48" height="48" viewBox="0 0 48 48"><title>11-Trello</title><g id="_11-Trello" data-name="11-Trello"><path d="M41,0H7A7.008,7.008,0,0,0,0,7V41a7.008,7.008,0,0,0,7,7H41a7.008,7.008,0,0,0,7-7V7A7.008,7.008,0,0,0,41,0Zm5,41a5.006,5.006,0,0,1-5,5H7a5.006,5.006,0,0,1-5-5V7A5.006,5.006,0,0,1,7,2H41a5.006,5.006,0,0,1,5,5Z"/><path d="M16,5H8A3,3,0,0,0,5,8V34a3,3,0,0,0,3,3h8a3,3,0,0,0,3-3V8A3,3,0,0,0,16,5Zm1,29a1,1,0,0,1-1,1H8a1,1,0,0,1-1-1V8A1,1,0,0,1,8,7h8a1,1,0,0,1,1,1Z"/><path d="M32,5H24a3,3,0,0,0-3,3V21a3,3,0,0,0,3,3h8a3,3,0,0,0,3-3V8A3,3,0,0,0,32,5Zm1,16a1,1,0,0,1-1,1H24a1,1,0,0,1-1-1V8a1,1,0,0,1,1-1h8a1,1,0,0,1,1,1Z"/></g></svg>