<svg xmlns="http://www.w3.org/2000/svg" width="48" height="48" viewBox="0 0 48 48"><title>15-Soundcloud</title><g id="_15-Soundcloud" data-name="15-Soundcloud"><path d="M39.995,26.258c0-.086.005-.172.005-.258a7,7,0,0,0-4.082-6.358A13.978,13.978,0,0,0,22,7a1,1,0,0,0,0,2A11.981,11.981,0,0,1,33.968,20.387a1,1,0,0,0,.67.894A5,5,0,0,1,38,26a4.949,4.949,0,0,1-.084.888,1,1,0,0,0,.857,1.168A6,6,0,0,1,38,40H23V12a1,1,0,0,0-2,0V41a1,1,0,0,0,1,1H38a8,8,0,0,0,1.995-15.742Z"/><path d="M17,11a1,1,0,0,0-1,1V39a1,1,0,0,0,2,0V12A1,1,0,0,0,17,11Z"/><path d="M12,6a1,1,0,0,0-1,1V41a1,1,0,0,0,2,0V7A1,1,0,0,0,12,6Z"/><path d="M8,15a1,1,0,0,0-1,1V38a1,1,0,0,0,2,0V16A1,1,0,0,0,8,15Z"/><path d="M3,12a1,1,0,0,0-1,1V41a1,1,0,0,0,2,0V13A1,1,0,0,0,3,12Z"/></g></svg>