<svg xmlns="http://www.w3.org/2000/svg" width="48" height="48" viewBox="0 0 48 48"><title>16-Reddit</title><g id="_16-Reddit" data-name="16-Reddit"><path d="M21,26a5,5,0,1,0-5,5A5.006,5.006,0,0,0,21,26Zm-8,0a3,3,0,1,1,3,3A3,3,0,0,1,13,26Z"/><path d="M37,26a5,5,0,1,0-5,5A5.006,5.006,0,0,0,37,26Zm-5,3a3,3,0,1,1,3-3A3,3,0,0,1,32,29Z"/><path d="M24,41c7.73,0,8.969-5.746,8.98-5.8a1,1,0,0,0-.777-1.171,1.008,1.008,0,0,0-1.182.771C30.983,34.968,30.04,39,24,39s-6.98-4.019-7.021-4.2a1,1,0,0,0-1.959.4C15.031,35.254,16.27,41,24,41Z"/><path d="M4,20a1,1,0,0,0,2,0,2,2,0,0,1,2-2,1,1,0,0,0,0-2A4,4,0,0,0,4,20Z"/><path d="M42,20a1,1,0,0,0,2,0,4,4,0,0,0-4-4,1,1,0,0,0,0,2A2,2,0,0,1,42,20Z"/><path d="M48,20a8,8,0,0,0-14.521-4.627,31.531,31.531,0,0,0-5.295-1.116,1,1,0,1,0-.247,1.984,29.447,29.447,0,0,1,5.657,1.266,1,1,0,0,0,1.185-.456,6,6,0,1,1,9.642,6.993,1,1,0,0,0-.115,1.2A10.891,10.891,0,0,1,46,31c0,8.271-9.869,15-22,15S2,39.271,2,31a10.891,10.891,0,0,1,1.694-5.757,1,1,0,0,0-.115-1.2,5.995,5.995,0,1,1,9.642-6.993,1,1,0,0,0,1.185.456A30.346,30.346,0,0,1,24,16v0h0A1,1,0,0,0,25,15.1c.038-.362,1.062-8.655,12.111-9.082a5,5,0,1,0-.007-2c-10.665.384-13.323,7.5-13.927,10.007a32.326,32.326,0,0,0-8.651,1.343,7.995,7.995,0,1,0-12.9,9.45A12.717,12.717,0,0,0,0,31c0,9.374,10.767,17,24,17s24-7.626,24-17a12.717,12.717,0,0,0-1.626-6.178A7.961,7.961,0,0,0,48,20ZM42,2a3,3,0,1,1-3,3A3,3,0,0,1,42,2Z"/></g></svg>