<svg xmlns="http://www.w3.org/2000/svg" width="48" height="48" viewBox="0 0 48 48"><title>17-Google chrome</title><g id="_17-Google_chrome" data-name="17-Google chrome"><path d="M24,0A24,24,0,1,0,48,24,24.028,24.028,0,0,0,24,0Zm0,46A22,22,0,1,1,46,24,22.025,22.025,0,0,1,24,46Z"/><path d="M41,15H24a9,9,0,0,0-8.162,5.231L12.969,8.752a1,1,0,0,0-1.94.486l4,16.005a1.01,1.01,0,0,0,.1.23A8.97,8.97,0,0,0,28.552,31.75L24.509,42.726a1,1,0,1,0,1.877.691l5.552-15.071a.888.888,0,0,0,.026-.168A8.966,8.966,0,0,0,29.644,17H41a1,1,0,0,0,0-2ZM31,24a7,7,0,1,1-7-7A7.008,7.008,0,0,1,31,24Z"/><path d="M24,28a1,1,0,0,0,0-2,2,2,0,1,1,2-2,1,1,0,0,0,2,0,4,4,0,1,0-4,4Z"/></g></svg>