<svg xmlns="http://www.w3.org/2000/svg" width="48" height="48" viewBox="0 0 48 48"><title>18-Blogger</title><g id="_18-Blogger" data-name="18-Blogger"><path d="M41,0H7A7.008,7.008,0,0,0,0,7V41a7.008,7.008,0,0,0,7,7H41a7.008,7.008,0,0,0,7-7V7A7.008,7.008,0,0,0,41,0Zm5,41a5.006,5.006,0,0,1-5,5H7a5.006,5.006,0,0,1-5-5V7A5.006,5.006,0,0,1,7,2H41a5.006,5.006,0,0,1,5,5Z"/><path d="M35,17H33V14a7.008,7.008,0,0,0-7-7H15a7.008,7.008,0,0,0-7,7V34a7.008,7.008,0,0,0,7,7H33a7.008,7.008,0,0,0,7-7V22A4.821,4.821,0,0,0,35,17ZM33,39H15a5.006,5.006,0,0,1-5-5V14a5.006,5.006,0,0,1,5-5H26a5.006,5.006,0,0,1,5,5v4a1,1,0,0,0,1,1h3a2.853,2.853,0,0,1,3,3V34A5.006,5.006,0,0,1,33,39Z"/><path d="M17,19h7a3,3,0,0,0,3-3V15a3,3,0,0,0-3-3H17a3,3,0,0,0-3,3v1A3,3,0,0,0,17,19Zm-1-4a1,1,0,0,1,1-1h7a1,1,0,0,1,1,1v1a1,1,0,0,1-1,1H17a1,1,0,0,1-1-1Z"/><path d="M31,25H17a3,3,0,0,0-3,3v2a3,3,0,0,0,3,3H31a3,3,0,0,0,3-3V28A3,3,0,0,0,31,25Zm1,5a1,1,0,0,1-1,1H17a1,1,0,0,1-1-1V28a1,1,0,0,1,1-1H31a1,1,0,0,1,1,1Z"/></g></svg>