<svg xmlns="http://www.w3.org/2000/svg" width="48" height="48" viewBox="0 0 48 48"><title>20-Ig</title><g id="_20-Ig" data-name="20-Ig"><path d="M39,0H9A9.01,9.01,0,0,0,0,9V39a9.01,9.01,0,0,0,9,9H39a9.01,9.01,0,0,0,9-9V9A9.01,9.01,0,0,0,39,0Zm7,39a7.008,7.008,0,0,1-7,7H9a7.008,7.008,0,0,1-7-7V9A7.008,7.008,0,0,1,9,2H39a7.008,7.008,0,0,1,7,7Z"/><path d="M24,14A12,12,0,1,0,36,26,12.013,12.013,0,0,0,24,14Zm0,22A10,10,0,1,1,34,26,10.011,10.011,0,0,1,24,36Z"/><path d="M24,18a8,8,0,1,0,8,8A8.009,8.009,0,0,0,24,18Zm0,14a6,6,0,1,1,6-6A6.006,6.006,0,0,1,24,32Z"/><path d="M35,5a3,3,0,1,0,3,3A3,3,0,0,0,35,5Zm0,4a1,1,0,1,1,1-1A1,1,0,0,1,35,9Z"/></g></svg>