<svg xmlns="http://www.w3.org/2000/svg" width="48" height="48" viewBox="0 0 48 48"><title>22-Yahoo</title><g id="_22-Yahoo" data-name="22-Yahoo"><path d="M24,0A24,24,0,1,0,48,24,24.028,24.028,0,0,0,24,0Zm0,46A22,22,0,1,1,46,24,22.025,22.025,0,0,1,24,46Z"/><path d="M35,25H13a1,1,0,0,0-1,1v3a12,12,0,0,0,24,0V26A1,1,0,0,0,35,25Zm-1,4a10,10,0,0,1-20,0V27H34Z"/><path d="M16,19a4,4,0,1,0-4-4A4,4,0,0,0,16,19Zm0-6a2,2,0,1,1-2,2A2,2,0,0,1,16,13Z"/><path d="M32,11a4,4,0,1,0,4,4A4,4,0,0,0,32,11Zm0,6a2,2,0,1,1,2-2A2,2,0,0,1,32,17Z"/><path d="M17,31H31a1,1,0,0,0,0-2H17a1,1,0,0,0,0,2Z"/></g></svg>