<svg xmlns="http://www.w3.org/2000/svg" width="48" height="48" viewBox="0 0 48 48"><title>23-Paypal</title><g id="_23-Paypal" data-name="23-Paypal"><path d="M25,28A11.013,11.013,0,0,0,36,17V11A11.013,11.013,0,0,0,25,0H7a1,1,0,0,0-.992.871l-6,46A1,1,0,0,0,1,48H9a1,1,0,0,0,.989-.852L12.861,28ZM11.011,26.852,8.139,46h-6L7.878,2H25a9.011,9.011,0,0,1,9,9v6a9.011,9.011,0,0,1-9,9H12A1,1,0,0,0,11.011,26.852Z"/><path d="M29,6a1,1,0,0,0-1-1H19a1,1,0,0,0-.989.855L15.627,22.146a1,1,0,0,0,.844,1.134,1.05,1.05,0,0,0,.147.011,1,1,0,0,0,.987-.855L19.864,7H28A1,1,0,0,0,29,6Z"/><path d="M41.421,5.925a1,1,0,0,0-.8,1.831A9.008,9.008,0,0,1,46,16v6a9.01,9.01,0,0,1-9,9H23a1,1,0,0,0-.991.868L20.125,46H14.157l2.031-13.881a1,1,0,1,0-1.979-.289l-2.2,15.025A1,1,0,0,0,13,48h8a1,1,0,0,0,.991-.868L23.875,33H37A11.013,11.013,0,0,0,48,22V16A11.009,11.009,0,0,0,41.421,5.925Z"/></g></svg>