<svg xmlns="http://www.w3.org/2000/svg" width="48" height="48" viewBox="0 0 48 48"><title>24- Periscope</title><g id="_24-_Periscope" data-name="24- Periscope"><path d="M24,0A19.021,19.021,0,0,0,5,19C5,31.308,22.587,47.082,23.335,47.747a1,1,0,0,0,1.33,0C25.413,47.082,43,31.308,43,19A19.021,19.021,0,0,0,24,0Zm0,45.642C20.782,42.63,7,29.137,7,19a17,17,0,0,1,34,0C41,29.131,27.217,42.629,24,45.642Z"/><path d="M24.83,8.041a1,1,0,0,0-1.052,1.241,6.972,6.972,0,0,1-8.5,8.5,1,1,0,0,0-1.241,1.052A10,10,0,1,0,24.83,8.041ZM24,26a8.049,8.049,0,0,1-7.748-6.033A8.991,8.991,0,0,0,26,11c0-.247-.011-.5-.033-.748A8,8,0,0,1,24,26Z"/></g></svg>