<svg xmlns="http://www.w3.org/2000/svg" width="48" height="48" viewBox="0 0 48 48"><title>25-Spotify</title><g id="_25-Spotify" data-name="25-Spotify"><path d="M24,0A24,24,0,1,0,48,24,24.028,24.028,0,0,0,24,0Zm0,46A22,22,0,1,1,46,24,22.025,22.025,0,0,1,24,46Z"/><path d="M17.721,15.812a15.883,15.883,0,0,0-7.611,6.307,1,1,0,1,0,1.69,1.069,14,14,0,0,1,24.839,2.324,1,1,0,0,0,1.859-.739A16.017,16.017,0,0,0,17.721,15.812Z"/><path d="M27.589,21.5A10,10,0,0,0,13.794,28.86a1,1,0,0,0,.8,1.166.962.962,0,0,0,.184.017,1,1,0,0,0,.982-.817,8,8,0,0,1,15.3-1.5,1,1,0,1,0,1.858-.739A9.933,9.933,0,0,0,27.589,21.5Z"/><path d="M25.608,26.09a5,5,0,0,0-6.981,4.587,1,1,0,0,0,1,1h0a1,1,0,0,0,1-1,3,3,0,1,1,5.977.391,1,1,0,0,0,.86,1.122.976.976,0,0,0,.132.009,1,1,0,0,0,.99-.869,5,5,0,0,0-2.978-5.242Z"/></g></svg>