<svg xmlns="http://www.w3.org/2000/svg" width="48" height="48" viewBox="0 0 48 48"><title>26-Codewall</title><g id="_26-Codewall" data-name="26-Codewall"><path d="M40,15a7,7,0,1,0-7-7A7.008,7.008,0,0,0,40,15ZM40,3a5,5,0,1,1-5,5A5.006,5.006,0,0,1,40,3Z"/><path d="M24,1a7,7,0,1,0,7,7A7.008,7.008,0,0,0,24,1Zm0,12a5,5,0,1,1,5-5A5.006,5.006,0,0,1,24,13Z"/><path d="M8,1a7,7,0,1,0,7,7A7.008,7.008,0,0,0,8,1ZM8,13a5,5,0,1,1,5-5A5.006,5.006,0,0,1,8,13Z"/><path d="M40,17a7,7,0,1,0,7,7A7.008,7.008,0,0,0,40,17Zm0,12a5,5,0,1,1,5-5A5.006,5.006,0,0,1,40,29Z"/><path d="M40,33a7,7,0,1,0,7,7A7.009,7.009,0,0,0,40,33Zm0,12a5,5,0,1,1,5-5A5.006,5.006,0,0,1,40,45Z"/><path d="M24,17a7,7,0,1,0,7,7A7.008,7.008,0,0,0,24,17Zm0,12a5,5,0,1,1,5-5A5.006,5.006,0,0,1,24,29Z"/></g></svg>