<svg xmlns="http://www.w3.org/2000/svg" width="48" height="48" viewBox="0 0 48 48"><title>27-Folder-Security</title><g id="_27-Folder-Security" data-name="27-Folder-Security"><path d="M25,14H41a3.887,3.887,0,0,0,4-4V5a5.006,5.006,0,0,0-5-5H10A5.006,5.006,0,0,0,5,5V47a1,1,0,0,0,.617.924A.987.987,0,0,0,6,48a1,1,0,0,0,.707-.293L20.414,34H40a5.006,5.006,0,0,0,5-5V24c0-1.383-1.045-4-5-4H25.012A.919.919,0,0,1,24,19V15.012A.918.918,0,0,1,25,14Zm0,8H40c2.8,0,2.99,1.678,3,2v5a3,3,0,0,1-3,3H20a1,1,0,0,0-.707.293L7,44.586V5a3,3,0,0,1,3-3H40a3,3,0,0,1,3,3v5a1.883,1.883,0,0,1-2,2H25a2.916,2.916,0,0,0-3,3v4A2.916,2.916,0,0,0,25,22Z"/></g></svg>