<svg xmlns="http://www.w3.org/2000/svg" width="48" height="48" viewBox="0 0 48 48"><title>29-Slack</title><g id="_29-Slack" data-name="29-Slack"><path d="M41.088,24.182a4,4,0,0,0-5.125-2.395l-2.82,1.023-1.364-3.761L34.6,18.026a4,4,0,1,0-2.729-7.52L29.05,11.53l-.683-1.881a4,4,0,1,0-7.521,2.73l.682,1.88-2.819,1.023-.683-1.88a4,4,0,0,0-7.52,2.729l.682,1.881-1.879.682a4,4,0,1,0,2.728,7.52l1.88-.683,1.365,3.761-1.88.682a4,4,0,1,0,2.729,7.52l1.88-.682.682,1.879a4,4,0,1,0,7.521-2.728l-.683-1.88,2.82-1.024.682,1.879a4,4,0,0,0,7.522-2.728l-.683-1.88,2.819-1.023A4.007,4.007,0,0,0,41.088,24.182Zm-9.825-.69L27.5,24.857,26.138,21.1l3.76-1.364Zm.682,1.88,1.364,3.76L29.549,30.5l-1.364-3.759Zm-6.323.167L22.8,26.562,21.438,22.8l2.819-1.023Zm-.166-6.322-1.365-3.761,3.76-1.364,1.365,3.76Zm7.1-6.831a2,2,0,0,1,1.365,3.76L31.1,17.17l-1.364-3.761Zm-9.824-.69a2,2,0,1,1,3.759-1.364l.683,1.88-3.76,1.365Zm-.517,4.443,1.365,3.76-2.82,1.023-1.364-3.76Zm-3.335,5.466-3.759,1.364-1.365-3.76,3.759-1.364Zm-6.488-6.156a2,2,0,0,1,3.759-1.365h0l.682,1.881-3.759,1.364Zm-1.032,8.884A2,2,0,1,1,9.99,20.574l1.88-.683,1.365,3.76Zm4.443.516,3.759-1.364,1.365,3.76-3.759,1.364ZM21.6,29.125l1.364,3.759-3.759,1.365-1.364-3.76Zm-6.155,6.488a2,2,0,0,1-1.365-3.759l1.88-.682,1.365,3.759Zm8.884,1.032a2,2,0,1,1-3.759,1.365l-.682-1.881,3.759-1.364Zm.516-4.443-1.364-3.759L26.3,27.419l1.365,3.76Zm9.825.69a2,2,0,0,1-3.76,1.365l-.682-1.88,3.76-1.365Zm3.336-5.466-2.82,1.023L33.825,24.69l2.82-1.023a1.98,1.98,0,0,1,.68-.121,2,2,0,0,1,.685,3.88Z"/><path d="M24,0A24,24,0,1,0,48,24,24.028,24.028,0,0,0,24,0Zm0,46A22,22,0,1,1,46,24,22.025,22.025,0,0,1,24,46Z"/></g></svg>