<svg xmlns="http://www.w3.org/2000/svg" width="48" height="48" viewBox="0 0 48 48"><title>3-Skype</title><g id="_3-Skype" data-name="3-Skype"><path d="M45.33,32.6A23,23,0,0,0,15.4,2.67,9,9,0,1,0,2.67,15.4,23,23,0,0,0,32.6,45.33,9,9,0,1,0,45.33,32.6ZM39,46a6.99,6.99,0,0,1-5.366-2.508,1,1,0,0,0-1.17-.273A21,21,0,0,1,4.781,15.536a1,1,0,0,0-.273-1.17,7,7,0,1,1,9.858-9.858,1,1,0,0,0,1.17.273A21,21,0,0,1,43.219,32.464a1,1,0,0,0,.273,1.17A7,7,0,0,1,39,46Z"/><path d="M26,13H22a5.006,5.006,0,0,0-5,5v2a5.006,5.006,0,0,0,5,5h4a3,3,0,0,1,3,3v2a3,3,0,0,1-3,3H22a3,3,0,0,1-3-3V28a1,1,0,0,0-2,0v2a5.006,5.006,0,0,0,5,5h4a5.006,5.006,0,0,0,5-5V28a5.006,5.006,0,0,0-5-5H22a3,3,0,0,1-3-3V18a3,3,0,0,1,3-3h4a3,3,0,0,1,3,3v2a1,1,0,0,0,2,0V18A5.006,5.006,0,0,0,26,13Z"/></g></svg>