<svg xmlns="http://www.w3.org/2000/svg" width="48" height="48" viewBox="0 0 48 48"><title>4-Facebook</title><g id="_4-Facebook" data-name="4-Facebook"><path d="M39,0H9A9.011,9.011,0,0,0,0,9V39a9.011,9.011,0,0,0,9,9H23a1,1,0,0,0,0-2H9a7.008,7.008,0,0,1-7-7V9A7.008,7.008,0,0,1,9,2H39a7.008,7.008,0,0,1,7,7V39a7.008,7.008,0,0,1-7,7H28V31h5a1,1,0,0,0,.961-.725l2-7A1,1,0,0,0,35,22H28V16h6a1,1,0,0,0,1-1V8a1,1,0,0,0-1-1H22a3.887,3.887,0,0,0-4,4V22H13a1,1,0,0,0-1,1v7a1,1,0,0,0,1,1h5V42a1,1,0,0,0,2,0V30a1,1,0,0,0-1-1H14V24h5a1,1,0,0,0,1-1V11a1.882,1.882,0,0,1,2-2H33v5H27a1,1,0,0,0-1,1v8a1,1,0,0,0,1,1h6.674l-1.428,5H27a1,1,0,0,0-1,1V47a1,1,0,0,0,1,1H39a9.011,9.011,0,0,0,9-9V9A9.011,9.011,0,0,0,39,0Z"/></g></svg>