<svg xmlns="http://www.w3.org/2000/svg" width="48" height="48" viewBox="0 0 48 48"><title>5-Youtube</title><g id="_5-Youtube" data-name="5-Youtube"><path d="M41,0H7A7.008,7.008,0,0,0,0,7V41a7.008,7.008,0,0,0,7,7H41a7.008,7.008,0,0,0,7-7V7A7.008,7.008,0,0,0,41,0Zm5,41a5.006,5.006,0,0,1-5,5H7a5.006,5.006,0,0,1-5-5V7A5.006,5.006,0,0,1,7,2H41a5.006,5.006,0,0,1,5,5Z"/><path d="M30,38H14V37a1,1,0,0,0-2,0v1H6a1,1,0,0,0,0,2h6v1a1,1,0,0,0,2,0V40H30a1,1,0,0,0,0-2Z"/><path d="M36,38H34a1,1,0,0,0,0,2h2a1,1,0,0,0,0-2Z"/><path d="M42,38H40a1,1,0,0,0,0,2h2a1,1,0,0,0,0-2Z"/><path d="M19.474,26.851a1,1,0,0,0,.973.044l8-4a1,1,0,0,0,0-1.79l-8-4A1,1,0,0,0,19,18v8A1,1,0,0,0,19.474,26.851ZM21,19.618,25.764,22,21,24.382Z"/></g></svg>