<svg xmlns="http://www.w3.org/2000/svg" width="48" height="48" viewBox="0 0 48 48"><title>6-Dribbble</title><g id="_6-Dribbble" data-name="6-Dribbble"><path d="M45.7,13.757A23.993,23.993,0,1,0,46.586,32.1,24.02,24.02,0,0,0,45.7,13.757ZM14.611,4.11a21.86,21.86,0,0,1,9.355-2.1,22.088,22.088,0,0,1,7.515,1.321,21.752,21.752,0,0,1-8.617,10.989,32.063,32.063,0,0,0-11.006-8.63A22.235,22.235,0,0,1,14.611,4.11ZM4.11,33.389A21.946,21.946,0,0,1,10,7.062a28.836,28.836,0,0,1,11.132,8.28c-.324.173-.636.361-.971.519A21.9,21.9,0,0,1,7.405,17.71,1,1,0,0,0,7.1,19.687a23.974,23.974,0,0,0,3.687.286,23.911,23.911,0,0,0,10.226-2.3c.474-.224.922-.485,1.377-.736a34.629,34.629,0,0,1,5.773,12.9c-.392.161-.787.314-1.174.5A23.778,23.778,0,0,0,14.672,43.907,21.9,21.9,0,0,1,4.11,33.389ZM29.093,45.4a21.977,21.977,0,0,1-12.574-.726A21.794,21.794,0,0,1,27.842,32.139c.24-.113.485-.2.727-.308A52.383,52.383,0,0,1,29.093,45.4ZM44.7,31.425A21.948,21.948,0,0,1,31.14,44.8a53.548,53.548,0,0,0-.668-13.688A21.725,21.725,0,0,1,42,30.555a1,1,0,0,0,.436-1.952,23.72,23.72,0,0,0-12.38.542A36.482,36.482,0,0,0,24.091,15.9,23.708,23.708,0,0,0,33.323,4.1,21.952,21.952,0,0,1,44.7,31.425Z"/></g></svg>