<svg xmlns="http://www.w3.org/2000/svg" width="48" height="48" viewBox="0 0 48 48"><title>7-Line</title><g id="_7-Line" data-name="7-Line"><path d="M24,0C10.767,0,0,9.42,0,21S10.767,42,24,42c.651,0,1.32-.025,2-.077V47a1,1,0,0,0,1,1,.988.988,0,0,0,.481-.124C28.319,47.416,48,36.414,48,21,48,9.42,37.233,0,24,0Zm4,45.232V40.825a1,1,0,0,0-1-1,.842.842,0,0,0-.112.007A25.962,25.962,0,0,1,24,40C11.869,40,2,31.477,2,21S11.869,2,24,2s22,8.523,22,19C46,32.882,32.55,42.365,28,45.232Z"/><path d="M38,17a1,1,0,0,0,0-2H33a1,1,0,0,0-1,1V26a1,1,0,0,0,1,1h5a1,1,0,0,0,0-2H34V22h4a1,1,0,0,0,0-2H34V17Z"/><path d="M15,25H11V16a1,1,0,0,0-2,0V26a1,1,0,0,0,1,1h5a1,1,0,0,0,0-2Z"/><path d="M19,15a1,1,0,0,0-1,1V26a1,1,0,0,0,2,0V16A1,1,0,0,0,19,15Z"/><path d="M29,15a1,1,0,0,0-1,1v6.39l-4.143-6.905A1,1,0,0,0,22,16V26a1,1,0,0,0,2,0V19.61l4.143,6.905A1,1,0,0,0,29,27a1.016,1.016,0,0,0,.267-.036A1,1,0,0,0,30,26V16A1,1,0,0,0,29,15Z"/></g></svg>