<svg id="_1-Facebook" data-name="1-Facebook" xmlns="http://www.w3.org/2000/svg" width="48" height="48" viewBox="0 0 48 48"><defs><style>.cls-1{fill:#f1f2f2;}.cls-2{fill:#49aaee;}.cls-3{fill:#474c54;}</style></defs><title>1-Facebook</title><g id="_Group_" data-name="&lt;Group&gt;"><path class="cls-1" d="M35,23l-2,7H27V46l.1.78A21.145,21.145,0,0,1,24,47a22.277,22.277,0,0,1-5-.56V30H13V23h6V11a2.938,2.938,0,0,1,3-3H34v7H27v8Z"/><path class="cls-2" d="M24,1a22.995,22.995,0,0,1,3.1,45.78L27,46V30h6l2-7H27V15h7V8H22a2.938,2.938,0,0,0-3,3V23H13v7h6V46.44A22.994,22.994,0,0,1,24,1Z"/><path class="cls-3" d="M24,0a23.995,23.995,0,0,0-5.221,47.416A23.414,23.414,0,0,0,24,48a22.111,22.111,0,0,0,3.232-.229A23.994,23.994,0,0,0,24,0Zm4,45.6V31h5a1,1,0,0,0,.961-.725l2-7A1,1,0,0,0,35,22H28V16h6a1,1,0,0,0,1-1V8a1,1,0,0,0-1-1H22a3.887,3.887,0,0,0-4,4V22H13a1,1,0,0,0-1,1v7a1,1,0,0,0,1,1h5V42a1,1,0,0,0,2,0V30a1,1,0,0,0-1-1H14V24h5a1,1,0,0,0,1-1V11a1.882,1.882,0,0,1,2-2H33v5H27a1,1,0,0,0-1,1v8a1,1,0,0,0,1,1h6.674l-1.428,5H27a1,1,0,0,0-1,1V45.883a21.63,21.63,0,0,1-6.776-.418l-.009,0A22.053,22.053,0,1,1,28,45.6Z"/></g></svg>