<svg xmlns="http://www.w3.org/2000/svg" width="48" height="48" viewBox="0 0 48 48"><defs><style>.cls-1{fill:#d0d7df;}.cls-2{fill:#49aaee;}.cls-3{fill:#fa5c66;}.cls-4{fill:#474c54;}</style></defs><title>10-Safari</title><g id="_10-Safari" data-name="10-Safari"><circle class="cls-1" cx="24" cy="24" r="23"/><circle class="cls-2" cx="24" cy="24" r="18"/><g id="_Group_" data-name="&lt;Group&gt;"><polygon class="cls-3" points="30.36 17.64 26.12 26.12 21.88 21.88 30.36 17.64"/><polygon class="cls-1" points="26.12 26.12 17.64 30.36 21.88 21.88 26.12 26.12"/><path class="cls-4" d="M24,0A24,24,0,1,0,48,24,24.028,24.028,0,0,0,24,0Zm0,46A22,22,0,1,1,46,24,22.025,22.025,0,0,1,24,46Z"/><path class="cls-4" d="M17.64,31.36a1,1,0,0,0,.447-.106l8.48-4.239a1,1,0,0,0,.448-.448l4.24-8.48a1,1,0,0,0-1.342-1.341l-8.48,4.239a1,1,0,0,0-.448.448l-4.24,8.48a1,1,0,0,0,.895,1.447Zm8.206-6.928-2.278-2.278,4.556-2.278Zm-3.692-.864,2.278,2.278-4.556,2.278Z"/><path class="cls-4" d="M24,5a1,1,0,0,0,0,2A17,17,0,1,1,7,24a1,1,0,0,0-2,0A19,19,0,1,0,24,5Z"/></g></g></svg>