<svg xmlns="http://www.w3.org/2000/svg" width="48" height="48" viewBox="0 0 48 48"><defs><style>.cls-1{fill:#f1f2f2;}.cls-2{fill:#49aaee;}.cls-3{fill:#474c54;}</style></defs><title>11-Trello</title><g id="_11-Trello" data-name="11-Trello"><g id="_Group_" data-name="&lt;Group&gt;"><rect class="cls-1" x="22" y="6" width="12" height="17" rx="2" ry="2"/><rect class="cls-1" x="6" y="6" width="12" height="30" rx="2" ry="2"/><path class="cls-2" d="M47,7V41a6,6,0,0,1-6,6H7a6,6,0,0,1-6-6V7A6,6,0,0,1,7,1H41A6,6,0,0,1,47,7ZM34,21V8a2.006,2.006,0,0,0-2-2H24a2.006,2.006,0,0,0-2,2V21a2.006,2.006,0,0,0,2,2h8A2.006,2.006,0,0,0,34,21ZM18,34V8a2.006,2.006,0,0,0-2-2H8A2.006,2.006,0,0,0,6,8V34a2.006,2.006,0,0,0,2,2h8A2.006,2.006,0,0,0,18,34Z"/><path class="cls-3" d="M41,48H7a7.008,7.008,0,0,1-7-7V7A7.008,7.008,0,0,1,7,0H41a7.008,7.008,0,0,1,7,7V41A7.008,7.008,0,0,1,41,48ZM7,2A5.006,5.006,0,0,0,2,7V41a5.006,5.006,0,0,0,5,5H41a5.006,5.006,0,0,0,5-5V7a5.006,5.006,0,0,0-5-5Z"/><path class="cls-3" d="M16,37H8a3,3,0,0,1-3-3V8A3,3,0,0,1,8,5h8a3,3,0,0,1,3,3V34A3,3,0,0,1,16,37ZM8,7A1,1,0,0,0,7,8V34a1,1,0,0,0,1,1h8a1,1,0,0,0,1-1V8a1,1,0,0,0-1-1Z"/><path class="cls-3" d="M32,24H24a3,3,0,0,1-3-3V8a3,3,0,0,1,3-3h8a3,3,0,0,1,3,3V21A3,3,0,0,1,32,24ZM24,7a1,1,0,0,0-1,1V21a1,1,0,0,0,1,1h8a1,1,0,0,0,1-1V8a1,1,0,0,0-1-1Z"/></g></g></svg>