<svg xmlns="http://www.w3.org/2000/svg" width="48" height="48" viewBox="0 0 48 48"><defs><style>.cls-1{fill:#fa5c75;}.cls-2{fill:#49aaee;}.cls-3{fill:#f1f2f2;}.cls-4{fill:#474c54;}</style></defs><title>12-Flickr</title><g id="_12-Flickr" data-name="12-Flickr"><g id="_Group_" data-name="&lt;Group&gt;"><circle class="cls-1" cx="16" cy="24" r="5"/><circle class="cls-2" cx="32" cy="24" r="5"/><path class="cls-3" d="M24,1A23,23,0,1,1,1,24,23,23,0,0,1,24,1ZM37,24a5,5,0,1,0-5,5A5,5,0,0,0,37,24ZM21,24a5,5,0,1,0-5,5A5,5,0,0,0,21,24Z"/><path class="cls-4" d="M24,48A24,24,0,1,1,48,24,24.028,24.028,0,0,1,24,48ZM24,2A22,22,0,1,0,46,24,22.025,22.025,0,0,0,24,2Z"/><path class="cls-4" d="M16,30a6,6,0,1,1,6-6A6.006,6.006,0,0,1,16,30Zm0-10a4,4,0,1,0,4,4A4,4,0,0,0,16,20Z"/><path class="cls-4" d="M32,30a6,6,0,1,1,6-6A6.006,6.006,0,0,1,32,30Zm0-10a4,4,0,1,0,4,4A4,4,0,0,0,32,20Z"/></g></g></svg>