<svg xmlns="http://www.w3.org/2000/svg" width="48" height="48" viewBox="0 0 48 48"><defs><style>.cls-1{fill:#fc934e;}.cls-2{fill:#474c54;}</style></defs><title>15-Soundcloud</title><g id="_15-Soundcloud" data-name="15-Soundcloud"><g id="_Group_" data-name="&lt;Group&gt;"><path class="cls-1" d="M38.9,27.06A7,7,0,0,1,38,41H22V8A12.994,12.994,0,0,1,34.97,20.34,6,6,0,0,1,39,26,6.144,6.144,0,0,1,38.9,27.06Z"/><path class="cls-2" d="M39.995,26.255c0-.086.005-.171.005-.255a6.994,6.994,0,0,0-4.079-6.355A13.985,13.985,0,0,0,22,7a1,1,0,0,0,0,2A11.988,11.988,0,0,1,33.972,20.391a1,1,0,0,0,.671.894A4.992,4.992,0,0,1,38,26a5.072,5.072,0,0,1-.085.886,1,1,0,0,0,.856,1.166A6,6,0,0,1,38,40H23V12a1,1,0,0,0-2,0V41a1,1,0,0,0,1,1H38a8,8,0,0,0,1.995-15.745Z"/><path class="cls-2" d="M17,11a1,1,0,0,0-1,1V39a1,1,0,0,0,2,0V12A1,1,0,0,0,17,11Z"/><path class="cls-2" d="M12,6a1,1,0,0,0-1,1V41a1,1,0,0,0,2,0V7A1,1,0,0,0,12,6Z"/><path class="cls-2" d="M8,15a1,1,0,0,0-1,1V38a1,1,0,0,0,2,0V16A1,1,0,0,0,8,15Z"/><path class="cls-2" d="M3,12a1,1,0,0,0-1,1V41a1,1,0,0,0,2,0V13A1,1,0,0,0,3,12Z"/></g></g></svg>