<svg xmlns="http://www.w3.org/2000/svg" width="48" height="48" viewBox="0 0 48 48"><defs><style>.cls-1{fill:#f1f2f2;}.cls-2{fill:#fed049;}.cls-3{fill:#fa5c66;}.cls-4{fill:#35dc86;}.cls-5{fill:#d0d7df;}.cls-6{fill:#474c54;}</style></defs><title>17-Google chrome</title><g id="_17-Google_chrome" data-name="17-Google chrome"><g id="_Group_" data-name="&lt;Group&gt;"><path class="cls-1" d="M32,24a8,8,0,0,1-15.94.99A8.1,8.1,0,0,1,16,24a8,8,0,0,1,16,0Z"/><path class="cls-2" d="M45.49,15.81A22.734,22.734,0,0,1,47,24,23,23,0,0,1,24,47l7-19-.06-.03A7.992,7.992,0,0,0,24,16H45Z"/><path class="cls-3" d="M16,24a8.1,8.1,0,0,0,.06.99L16,25,11.01,5.03A22.982,22.982,0,0,1,45.49,15.81L45,16H24A8,8,0,0,0,16,24Z"/><path class="cls-4" d="M24,32a7.974,7.974,0,0,0,6.94-4.03L31,28,24,47A22.993,22.993,0,0,1,11.01,5.03L16,25l.06-.01A8,8,0,0,0,24,32Z"/><circle class="cls-5" cx="24" cy="24" r="3"/><path class="cls-6" d="M46.424,15.452A24.109,24.109,0,0,0,24,0,24,24,0,1,0,48,24,23.666,23.666,0,0,0,46.424,15.452ZM24,46A22,22,0,1,1,44.556,16.165l0,.005A21.678,21.678,0,0,1,46,24,22.025,22.025,0,0,1,24,46Z"/><path class="cls-6" d="M41,15H24a9,9,0,0,0-8.162,5.231L12.97,8.757a1,1,0,0,0-1.94.486l4,16a.978.978,0,0,0,.1.221,8.986,8.986,0,0,0,13.421,6.3L24.512,42.724a1,1,0,0,0,1.877.692l5.549-15.07a.964.964,0,0,0,.033-.212A8.924,8.924,0,0,0,29.644,17H41a1,1,0,0,0,0-2ZM31,24a7.012,7.012,0,0,1-7,7,7,7,0,1,1,7-7Z"/><path class="cls-6" d="M24,28a1,1,0,0,0,0-2,2,2,0,1,1,2-2,1,1,0,0,0,2,0,4,4,0,1,0-4,4Z"/></g></g></svg>