<svg xmlns="http://www.w3.org/2000/svg" width="48" height="48" viewBox="0 0 48 48"><defs><style>.cls-1{fill:#fc934e;}.cls-2{fill:#474c54;}</style></defs><title>19-Digg</title><g id="_19-Digg" data-name="19-Digg"><g id="_Group_" data-name="&lt;Group&gt;"><circle class="cls-1" cx="24" cy="24" r="23"/><path class="cls-2" d="M24,0A24,24,0,1,0,48,24,24.028,24.028,0,0,0,24,0Zm0,46A22,22,0,1,1,46,24,22.025,22.025,0,0,1,24,46Z"/><path class="cls-2" d="M16,13a1,1,0,0,0-1,1V26a1,1,0,0,1-1,1H10a1,1,0,0,1-1-1V22a1,1,0,0,1,1-1h2a1,1,0,0,0,0-2H10a3,3,0,0,0-3,3v4a3,3,0,0,0,3,3h4a3,3,0,0,0,3-3V14A1,1,0,0,0,16,13Z"/><path class="cls-2" d="M20,19a1,1,0,0,0-1,1v8a1,1,0,0,0,2,0V20A1,1,0,0,0,20,19Z"/><path class="cls-2" d="M20,14a1,1,0,0,0-1,1v1a1,1,0,0,0,2,0V15A1,1,0,0,0,20,14Z"/><path class="cls-2" d="M28,19H26a3,3,0,0,0-3,3v4a3,3,0,0,0,3,3,1,1,0,0,0,0-2,1,1,0,0,1-1-1V22a1,1,0,0,1,1-1h2a1,1,0,0,1,1,1v9.988A.918.918,0,0,1,28,33H26a1,1,0,0,0,0,2h2a2.916,2.916,0,0,0,3-3V22A3,3,0,0,0,28,19Z"/><path class="cls-2" d="M38,19H36a3,3,0,0,0-3,3v4a3,3,0,0,0,3,3,1,1,0,0,0,0-2,1,1,0,0,1-1-1V22a1,1,0,0,1,1-1h2a1,1,0,0,1,1,1v9.988A.918.918,0,0,1,38,33H36a1,1,0,0,0,0,2h2a2.916,2.916,0,0,0,3-3V22A3,3,0,0,0,38,19Z"/></g></g></svg>