<svg xmlns="http://www.w3.org/2000/svg" width="48" height="48" viewBox="0 0 48 48"><defs><style>.cls-1{fill:#d0d7df;}.cls-2{fill:#f1f2f2;}.cls-3{fill:#a263e5;}.cls-4{fill:#474c54;}</style></defs><title>28-Twitch</title><g id="_28-Twitch" data-name="28-Twitch"><g id="_Group_" data-name="&lt;Group&gt;"><rect class="cls-1" x="27" y="15" width="6" height="11" rx="1" ry="1"/><rect class="cls-1" x="15" y="15" width="6" height="11" rx="1" ry="1"/><path class="cls-2" d="M41,9V27l-5,5H27l-5,5V32H7V12l3-3ZM33,25V16a1,1,0,0,0-1-1H28a1,1,0,0,0-1,1v9a1,1,0,0,0,1,1h4A1,1,0,0,0,33,25ZM21,25V16a1,1,0,0,0-1-1H16a1,1,0,0,0-1,1v9a1,1,0,0,0,1,1h4A1,1,0,0,0,21,25Z"/><path class="cls-3" d="M47,3V28L36,39H28l-5,6H17V39H1V8L6,3ZM41,27V9H10L7,12V32H22v5l5-5h9Z"/><path class="cls-4" d="M47,2H6a1,1,0,0,0-.707.293l-5,5A1,1,0,0,0,0,8V39a1,1,0,0,0,1,1H16v5a1,1,0,0,0,1,1h6a1,1,0,0,0,.769-.359L28.469,40H36a1,1,0,0,0,.707-.293l11-11A1,1,0,0,0,48,28V3A1,1,0,0,0,47,2ZM46,27.586,35.586,38H28a1,1,0,0,0-.769.359L22.531,44H18V39a1,1,0,0,0-1-1H2V8.414L6.414,4H46Z"/><path class="cls-4" d="M6,12V32a1,1,0,0,0,1,1H21v4a1,1,0,0,0,.617.924A.987.987,0,0,0,22,38a1,1,0,0,0,.707-.293L27.414,33H36a1,1,0,0,0,.707-.293l5-5A1,1,0,0,0,42,27V9a1,1,0,0,0-1-1H10a1,1,0,0,0-.707.293l-3,3A1,1,0,0,0,6,12Zm2,.414L10.414,10H40V26.586L35.586,31H27a1,1,0,0,0-.707.293L23,34.586V32a1,1,0,0,0-1-1H8Z"/><path class="cls-4" d="M22,16a2,2,0,0,0-2-2H16a2,2,0,0,0-2,2v9a2,2,0,0,0,2,2h4a2,2,0,0,0,2-2Zm-2,9-4,0V16h4Z"/><path class="cls-4" d="M28,27h4a2,2,0,0,0,2-2V16a2,2,0,0,0-2-2H28a2,2,0,0,0-2,2v9A2,2,0,0,0,28,27Zm0-11h4v9l-4,0Z"/></g></g></svg>