<svg xmlns="http://www.w3.org/2000/svg" width="48" height="48" viewBox="0 0 48 48"><defs><style>.cls-1{fill:#f1f2f2;}.cls-2{fill:#fa5c66;}.cls-3{fill:#49aaee;}.cls-4{fill:#fed049;}.cls-5{fill:#35dc86;}.cls-6{fill:#474c54;}</style></defs><title>29-Slack</title><g id="_29-Slack" data-name="29-Slack"><circle class="cls-1" cx="24" cy="24" r="23"/><g id="_Group_" data-name="&lt;Group&gt;"><rect class="cls-2" x="27.744" y="24.934" width="6.001" height="6.001" transform="matrix(0.94, -0.342, 0.342, 0.94, -7.693, 12.183)"/><rect class="cls-3" x="23.654" y="13.654" width="6.001" height="6.001" transform="matrix(0.94, -0.342, 0.342, 0.94, -4.086, 10.108)"/><rect class="cls-2" x="17.404" y="28.684" width="6.001" height="6.001" transform="matrix(0.94, -0.342, 0.342, 0.94, -9.596, 8.877)"/><rect class="cls-3" x="13.314" y="17.404" width="6.001" height="6.001" transform="matrix(0.94, -0.342, 0.342, 0.94, -5.989, 6.801)"/><polygon class="cls-4" points="30.5 18.45 32.54 24.09 26.9 26.14 24.86 20.5 30.5 18.45"/><polygon class="cls-5" points="20.16 22.2 22.2 27.84 16.56 29.89 14.52 24.25 20.16 22.2"/><path class="cls-5" d="M25.27,36.3a3,3,0,1,1-5.64,2.05l-1.02-2.82,5.64-2.05Z"/><path class="cls-5" d="M17.09,13.74l1.02,2.82-5.64,2.05-1.02-2.82a3,3,0,0,1,5.64-2.05Z"/><path class="cls-2" d="M40.15,24.52a3.012,3.012,0,0,1-1.8,3.85l-3.76,1.36-2.05-5.64,3.76-1.36A3.007,3.007,0,0,1,40.15,24.52Z"/><polygon class="cls-2" points="26.9 26.14 28.95 31.78 24.25 33.48 22.2 27.84 26.9 26.14"/><path class="cls-2" d="M16.56,29.89l2.05,5.64-2.82,1.02a3,3,0,0,1-2.05-5.64Z"/><polygon class="cls-3" points="22.81 14.86 24.86 20.5 20.16 22.2 18.11 16.56 22.81 14.86"/><path class="cls-3" d="M36.05,13.24a3.007,3.007,0,0,1-1.79,3.85L30.5,18.45l-2.05-5.64,3.76-1.36A2.992,2.992,0,0,1,36.05,13.24Z"/><path class="cls-3" d="M12.47,18.61l2.05,5.64L11.7,25.27a3,3,0,1,1-2.05-5.64Z"/><path class="cls-4" d="M35.61,32.55a3,3,0,0,1-5.64,2.05l-1.02-2.82,5.64-2.05Z"/><path class="cls-4" d="M27.43,9.99l1.02,2.82-5.64,2.05-1.02-2.82a3,3,0,1,1,5.64-2.05Z"/><path class="cls-6" d="M24,0A24,24,0,1,0,48,24,24.028,24.028,0,0,0,24,0Zm0,46A22,22,0,1,1,46,24,22.025,22.025,0,0,1,24,46Z"/><path class="cls-6" d="M41.089,24.175A4.01,4.01,0,0,0,35.96,21.79l-2.817,1.021L31.78,19.053,34.6,18.028A4.008,4.008,0,0,0,36.99,12.9a3.991,3.991,0,0,0-5.12-2.391l-2.818,1.021-.683-1.884A4,4,0,1,0,20.85,12.38l.681,1.879-2.819,1.022L18.028,13.4A4.007,4.007,0,0,0,12.9,11.01a3.992,3.992,0,0,0-2.39,5.12l.681,1.878-1.883.682a4,4,0,0,0,1.369,7.762,3.969,3.969,0,0,0,1.363-.242l1.878-.681,1.363,3.759-1.886.684A4.009,4.009,0,0,0,11.01,35.1a3.983,3.983,0,0,0,5.12,2.39l1.878-.681.682,1.883a4,4,0,1,0,7.52-2.732l-.681-1.878,2.819-1.022.682,1.882a4.012,4.012,0,0,0,3.764,2.631,4,4,0,0,0,3.757-5.364l-.681-1.876,2.822-1.023A4.026,4.026,0,0,0,41.089,24.175Zm-9.827-.682L27.5,24.857,26.138,21.1l3.76-1.363Zm.682,1.88,1.363,3.759L29.546,30.5l-1.363-3.76Zm-6.323.166L22.8,26.561,21.439,22.8l2.819-1.022Zm2.231-11.445,1.364,3.758-3.76,1.364-1.363-3.759Zm4.7-1.7a2,2,0,0,1,.684-.122,2,2,0,0,1,1.872,1.316,2.006,2.006,0,0,1-1.19,2.566L31.1,17.171l-1.363-3.76ZM22.729,11.7a2,2,0,1,1,3.76-1.366l.682,1.883-3.76,1.363Zm-.517,4.442L23.576,19.9,20.757,20.92l-1.363-3.759Zm-4.7,1.7,1.364,3.76-3.76,1.364-1.363-3.761Zm-5.122-2.4a2,2,0,0,1,1.876-2.679,2.008,2.008,0,0,1,1.883,1.313l.682,1.882-3.76,1.363ZM11.357,24.33A2,2,0,1,1,9.99,20.57l1.882-.682,1.364,3.761Zm4.441.517,3.76-1.363,1.363,3.759-3.76,1.363ZM21.6,29.123l1.364,3.76-3.761,1.364-1.363-3.76ZM15.446,35.61a1.988,1.988,0,0,1-2.556-1.194,2.006,2.006,0,0,1,1.191-2.565l1.881-.683,1.364,3.761Zm8.884,1.033a2,2,0,1,1-3.76,1.367l-.682-1.882,3.761-1.364Zm.517-4.442-1.363-3.76L26.3,27.419l1.364,3.759Zm9.824.692a1.993,1.993,0,0,1-1.193,2.557,2,2,0,0,1-2.568-1.19l-.682-1.881,3.762-1.364ZM38.01,27.43l-2.822,1.021-1.363-3.76,2.818-1.022a2,2,0,0,1,2.566,1.188A2.02,2.02,0,0,1,38.01,27.43Z"/></g></g></svg>