<svg xmlns="http://www.w3.org/2000/svg" width="48" height="48" viewBox="0 0 48 48"><defs><style>.cls-1{fill:#49aaee;}.cls-2{fill:#474c54;}</style></defs><title>3-Skype</title><g id="_3-Skype" data-name="3-Skype"><path class="cls-1" d="M44.13,32.87A7.994,7.994,0,1,1,32.87,44.13a22,22,0,0,1-29-29A7.994,7.994,0,1,1,15.13,3.87a22,22,0,0,1,29,29Z"/><path class="cls-2" d="M45.326,32.609A23,23,0,0,0,15.391,2.674,8.992,8.992,0,1,0,2.674,15.391,23,23,0,0,0,32.609,45.326,8.992,8.992,0,1,0,45.326,32.609ZM39,46a7,7,0,0,1-5.364-2.513,1,1,0,0,0-.766-.357,1.011,1.011,0,0,0-.4.085A20.995,20.995,0,0,1,4.785,15.534a1,1,0,0,0-.272-1.17,6.994,6.994,0,1,1,9.851-9.851,1,1,0,0,0,1.17.272A20.995,20.995,0,0,1,43.215,32.466a1,1,0,0,0,.272,1.17A6.994,6.994,0,0,1,39,46Z"/><path class="cls-2" d="M26,13H22a5.006,5.006,0,0,0-5,5v2a5.006,5.006,0,0,0,5,5h4a3,3,0,0,1,3,3v2a3,3,0,0,1-3,3H22a3,3,0,0,1-3-3V28a1,1,0,0,0-2,0v2a5.006,5.006,0,0,0,5,5h4a5.006,5.006,0,0,0,5-5V28a5.006,5.006,0,0,0-5-5H22a3,3,0,0,1-3-3V18a3,3,0,0,1,3-3h4a3,3,0,0,1,3,3v2a1,1,0,0,0,2,0V18A5.006,5.006,0,0,0,26,13Z"/></g></svg>