<svg xmlns="http://www.w3.org/2000/svg" width="48" height="48" viewBox="0 0 48 48"><defs><style>.cls-1{fill:#f1f2f2;}.cls-2{fill:#49aaee;}.cls-3{fill:#474c54;}</style></defs><title>4-Facebook</title><g id="_4-Facebook" data-name="4-Facebook"><g id="_Group_" data-name="&lt;Group&gt;"><path class="cls-1" d="M35,23l-2,7H27V47H19V30H13V23h6V11a2.938,2.938,0,0,1,3-3H34v7H27v8Z"/><path class="cls-2" d="M47,9V39a8,8,0,0,1-8,8H27V30h6l2-7H27V15h7V8H22a2.938,2.938,0,0,0-3,3V23H13v7h6V47H9a8,8,0,0,1-8-8V9A8,8,0,0,1,9,1H39A8,8,0,0,1,47,9Z"/><path class="cls-3" d="M39,0H9A9.011,9.011,0,0,0,0,9V39a9.011,9.011,0,0,0,9,9H23a1,1,0,0,0,0-2H9a7.008,7.008,0,0,1-7-7V9A7.008,7.008,0,0,1,9,2H39a7.008,7.008,0,0,1,7,7V39a7.008,7.008,0,0,1-7,7H28V31h5a1,1,0,0,0,.961-.725l2-7A1,1,0,0,0,35,22H28V16h6a1,1,0,0,0,1-1V8a1,1,0,0,0-1-1H22a3.887,3.887,0,0,0-4,4V22H13a1,1,0,0,0-1,1v7a1,1,0,0,0,1,1h5V42a1,1,0,0,0,2,0V30a1,1,0,0,0-1-1H14V24h5a1,1,0,0,0,1-1V11a1.882,1.882,0,0,1,2-2H33v5H27a1,1,0,0,0-1,1v8a1,1,0,0,0,1,1h6.674l-1.428,5H27a1,1,0,0,0-1,1V47a1,1,0,0,0,1,1H39a9.011,9.011,0,0,0,9-9V9A9.011,9.011,0,0,0,39,0Z"/></g></g></svg>