<svg xmlns="http://www.w3.org/2000/svg" width="48" height="48" viewBox="0 0 48 48"><defs><style>.cls-1{fill:#35dc86;}.cls-2{fill:#474c54;}</style></defs><title>7-Line</title><g id="_7-Line" data-name="7-Line"><path class="cls-1" d="M24,1C36.7,1,47,9.95,47,21c0,15-20,26-20,26V40.83A26.87,26.87,0,0,1,24,41C11.3,41,1,32.05,1,21S11.3,1,24,1Z"/><path class="cls-2" d="M24,0C10.767,0,0,9.42,0,21,0,33.156,11.841,42.965,26,41.926V47a1,1,0,0,0,1,1,.988.988,0,0,0,.481-.124C28.319,47.416,48,36.414,48,21,48,9.42,37.233,0,24,0Zm4,45.232v-4.4a1,1,0,0,0-1-1,1.032,1.032,0,0,0-.111.006C13.505,41.338,2,32.3,2,21,2,10.523,11.869,2,24,2s22,8.523,22,19C46,32.882,32.55,42.365,28,45.232Z"/><path class="cls-2" d="M38,17a1,1,0,0,0,0-2H33a1,1,0,0,0-1,1V26a1,1,0,0,0,1,1h5a1,1,0,0,0,0-2H34V22h4a1,1,0,0,0,0-2H34V17Z"/><path class="cls-2" d="M15,25H11V16a1,1,0,0,0-2,0V26a1,1,0,0,0,1,1h5a1,1,0,0,0,0-2Z"/><path class="cls-2" d="M19,15a1,1,0,0,0-1,1V26a1,1,0,0,0,2,0V16A1,1,0,0,0,19,15Z"/><path class="cls-2" d="M29,15a1,1,0,0,0-1,1v6.39l-4.143-6.905A1,1,0,0,0,22,16V26a1,1,0,0,0,2,0V19.61l4.143,6.905A1,1,0,0,0,29,27a1.016,1.016,0,0,0,.267-.036A1,1,0,0,0,30,26V16A1,1,0,0,0,29,15Z"/></g></svg>