<svg xmlns="http://www.w3.org/2000/svg" width="48" height="48" viewBox="0 0 48 48"><defs><style>.cls-1{fill:#f1f2f2;}.cls-2{fill:#fa5c66;}.cls-3{fill:#474c54;}</style></defs><title>8-Youtube</title><g id="_8-Youtube" data-name="8-Youtube"><g id="_Group_" data-name="&lt;Group&gt;"><polygon class="cls-1" points="28 24 20 28 20 20 28 24"/><path class="cls-2" d="M47,14V34a6,6,0,0,1-6,6H7a6,6,0,0,1-6-6V14A6,6,0,0,1,7,8H41A6,6,0,0,1,47,14ZM20,28l8-4-8-4Z"/><path class="cls-3" d="M41,41H7a7.008,7.008,0,0,1-7-7V14A7.008,7.008,0,0,1,7,7H41a7.008,7.008,0,0,1,7,7V34A7.008,7.008,0,0,1,41,41ZM7,9a5.006,5.006,0,0,0-5,5V34a5.006,5.006,0,0,0,5,5H41a5.006,5.006,0,0,0,5-5V14a5.006,5.006,0,0,0-5-5Z"/><path class="cls-3" d="M20,29a1,1,0,0,1-1-1V20a1,1,0,0,1,1.447-.895l8,4a1,1,0,0,1,0,1.79l-8,4A1,1,0,0,1,20,29Zm1-7.382v4.764L25.764,24Z"/></g></g></svg>