<svg xmlns="http://www.w3.org/2000/svg" width="48" height="48" viewBox="0 0 48 48"><defs><style>.cls-1{fill:#49aaee;}.cls-2{fill:#474c54;}</style></defs><title>9-Messager</title><g id="_9-Messager" data-name="9-Messager"><g id="_Group_" data-name="&lt;Group&gt;"><path class="cls-1" d="M24,4c12.7,0,23,8.95,23,20S36.7,44,24,44a25.538,25.538,0,0,1-11.29-2.58L6,44l1.16-6.38A18.615,18.615,0,0,1,1,24C1,12.95,11.3,4,24,4Z"/><path class="cls-2" d="M6,45a1,1,0,0,1-.983-1.179L6.08,37.97A19.507,19.507,0,0,1,0,24C0,12.42,10.767,3,24,3s24,9.42,24,21S37.233,45,24,45a26.726,26.726,0,0,1-11.334-2.492L6.359,44.934A1.018,1.018,0,0,1,6,45Zm6.71-4.58a1,1,0,0,1,.441.1A24.666,24.666,0,0,0,24,43c12.131,0,22-8.523,22-19S36.131,5,24,5,2,13.523,2,24A17.612,17.612,0,0,0,7.843,36.89a1,1,0,0,1,.3.909L7.3,42.428l5.048-1.942A1.014,1.014,0,0,1,12.71,40.42Z"/></g><path class="cls-2" d="M14,30a1,1,0,0,1-.707-1.707l8-8a1,1,0,0,1,1.414,0L27,24.586l7.293-7.293a1,1,0,0,1,1.414,1.414l-8,8a1,1,0,0,1-1.414,0L22,22.414l-7.293,7.293A1,1,0,0,1,14,30Z"/></g></svg>