<svg xmlns="http://www.w3.org/2000/svg" width="48" height="48" viewBox="0 0 48 48"><defs><style>.cls-1{fill:none;stroke:#000;stroke-linecap:round;stroke-linejoin:round;stroke-width:2px;}</style></defs><title>18-Blogger</title><g id="_18-Blogger" data-name="18-Blogger"><rect class="cls-1" x="1" y="1" width="46" height="46" rx="6" ry="6"/><path class="cls-1" d="M39,34a6,6,0,0,1-6,6H15a6,6,0,0,1-6-6V14a6,6,0,0,1,6-6H26a6,6,0,0,1,6,6v4h3"/><line class="cls-1" x1="39" y1="34" x2="39" y2="22"/><path class="cls-1" d="M39,22s0-4-4-4"/><rect class="cls-1" x="15" y="13" width="11" height="5" rx="2" ry="2"/><rect class="cls-1" x="15" y="26" width="18" height="6" rx="2" ry="2"/></g></svg>