<svg xmlns="http://www.w3.org/2000/svg" width="48" height="48" viewBox="0 0 48 48"><defs><style>.cls-1{fill:none;stroke:#000;stroke-linecap:round;stroke-linejoin:round;stroke-width:2px;}</style></defs><title>19-Digg</title><g id="_19-Digg" data-name="19-Digg"><circle class="cls-1" cx="24" cy="24" r="23"/><path class="cls-1" d="M12,20H10a2,2,0,0,0-2,2v4a2,2,0,0,0,2,2h4a2,2,0,0,0,2-2V14"/><line class="cls-1" x1="20" y1="20" x2="20" y2="28"/><line class="cls-1" x1="20" y1="15" x2="20" y2="16"/><path class="cls-1" d="M26,28a2,2,0,0,1-2-2V22a2,2,0,0,1,2-2h2a2,2,0,0,1,2,2V32a1.959,1.959,0,0,1-2,2H26"/><path class="cls-1" d="M36,28a2,2,0,0,1-2-2V22a2,2,0,0,1,2-2h2a2,2,0,0,1,2,2V32a1.959,1.959,0,0,1-2,2H36"/></g></svg>