<svg xmlns="http://www.w3.org/2000/svg" width="48" height="48" viewBox="0 0 48 48"><defs><style>.cls-1{fill:#f1f2f2;}.cls-2{fill:#49aaee;}.cls-3{fill:none;stroke:#474c54;stroke-linecap:round;stroke-linejoin:round;stroke-width:2px;}</style></defs><title>11-Trello</title><g id="_11-Trello" data-name="11-Trello"><g id="_Group_" data-name="&lt;Group&gt;"><rect class="cls-1" x="22" y="6" width="12" height="17" rx="2" ry="2"/><rect class="cls-1" x="6" y="6" width="12" height="30" rx="2" ry="2"/><path class="cls-2" d="M47,7V41a6,6,0,0,1-6,6H7a6,6,0,0,1-6-6V7A6,6,0,0,1,7,1H41A6,6,0,0,1,47,7ZM34,21V8a2.006,2.006,0,0,0-2-2H24a2.006,2.006,0,0,0-2,2V21a2.006,2.006,0,0,0,2,2h8A2.006,2.006,0,0,0,34,21ZM18,34V8a2.006,2.006,0,0,0-2-2H8A2.006,2.006,0,0,0,6,8V34a2.006,2.006,0,0,0,2,2h8A2.006,2.006,0,0,0,18,34Z"/><rect class="cls-3" x="1" y="1" width="46" height="46" rx="6" ry="6"/><rect class="cls-3" x="6" y="6" width="12" height="30" rx="2" ry="2"/><rect class="cls-3" x="22" y="6" width="12" height="17" rx="2" ry="2"/></g></g></svg>