<svg xmlns="http://www.w3.org/2000/svg" width="48" height="48" viewBox="0 0 48 48"><defs><style>.cls-1{fill:#fa5c75;}.cls-2{fill:#49aaee;}.cls-3{fill:#f1f2f2;}.cls-4{fill:none;stroke:#474c54;stroke-linecap:round;stroke-linejoin:round;stroke-width:2px;}</style></defs><title>12-Flickr</title><g id="_12-Flickr" data-name="12-Flickr"><g id="_Group_" data-name="&lt;Group&gt;"><circle class="cls-1" cx="16" cy="24" r="5"/><circle class="cls-2" cx="32" cy="24" r="5"/><path class="cls-3" d="M24,1A23,23,0,1,1,1,24,23,23,0,0,1,24,1ZM37,24a5,5,0,1,0-5,5A5,5,0,0,0,37,24ZM21,24a5,5,0,1,0-5,5A5,5,0,0,0,21,24Z"/><circle class="cls-4" cx="24" cy="24" r="23"/><circle class="cls-4" cx="16" cy="24" r="5"/><circle class="cls-4" cx="32" cy="24" r="5"/></g></g></svg>