<svg xmlns="http://www.w3.org/2000/svg" width="48" height="48" viewBox="0 0 48 48"><defs><style>.cls-1{fill:#fc934e;}.cls-2{fill:none;stroke:#474c54;stroke-linecap:round;stroke-linejoin:round;stroke-width:2px;}</style></defs><title>15-Soundcloud</title><g id="_15-Soundcloud" data-name="15-Soundcloud"><g id="_Group_" data-name="&lt;Group&gt;"><path class="cls-1" d="M38.9,27.06A7,7,0,0,1,38,41H22V8A12.994,12.994,0,0,1,34.97,20.34,6,6,0,0,1,39,26,6.144,6.144,0,0,1,38.9,27.06Z"/><path class="cls-2" d="M22,8A12.994,12.994,0,0,1,34.97,20.34,6,6,0,0,1,39,26a6.144,6.144,0,0,1-.1,1.06A7,7,0,0,1,38,41H22V12"/><line class="cls-2" x1="17" y1="39" x2="17" y2="12"/><line class="cls-2" x1="12" y1="41" x2="12" y2="7"/><line class="cls-2" x1="8" y1="38" x2="8" y2="16"/><line class="cls-2" x1="3" y1="41" x2="3" y2="13"/></g></g></svg>