<svg xmlns="http://www.w3.org/2000/svg" width="48" height="48" viewBox="0 0 48 48"><defs><style>.cls-1{fill:#a263e5;}.cls-2{fill:#f1f2f2;}.cls-3{fill:none;stroke:#474c54;stroke-linecap:round;stroke-linejoin:round;stroke-width:2px;}.cls-4{fill:#a4b0c0;}</style></defs><title>2-Ig</title><g id="_2-Ig" data-name="2-Ig"><rect class="cls-1" x="1" y="1" width="46" height="46" rx="8" ry="8"/><path class="cls-2" d="M47,9a8,8,0,0,0-8-8H9A8,8,0,0,0,1,9v6H47Z"/><path class="cls-3" d="M37,15H47V9a8,8,0,0,0-8-8H9A7.975,7.975,0,0,0,1,9v6H11"/><path class="cls-3" d="M1,19V39a8,8,0,0,0,8,8H39a8,8,0,0,0,8-8V19"/><g id="_Group_" data-name="&lt;Group&gt;"><circle class="cls-4" cx="35" cy="8" r="2"/><path class="cls-4" d="M24,15A11,11,0,1,1,13,26,10.994,10.994,0,0,1,24,15Zm7,11a7,7,0,1,0-7,7A6.995,6.995,0,0,0,31,26Z"/><circle class="cls-2" cx="24" cy="26" r="7"/><circle class="cls-3" cx="24" cy="26" r="11"/><circle class="cls-3" cx="24" cy="26" r="7"/><circle class="cls-3" cx="35" cy="8" r="2"/></g></g></svg>