<svg xmlns="http://www.w3.org/2000/svg" width="48" height="48" viewBox="0 0 48 48"><defs><style>.cls-1{fill:#a263e5;}.cls-2{fill:none;stroke:#474c54;stroke-linecap:round;stroke-linejoin:round;stroke-width:2px;}.cls-3{fill:#a4b0c0;}.cls-4{fill:#f1f2f2;}.cls-5{fill:#d0d7df;}</style></defs><title>20-Ig</title><g id="_20-Ig" data-name="20-Ig"><g id="_Group_" data-name="&lt;Group&gt;"><rect class="cls-1" x="1" y="1" width="46" height="46" rx="8" ry="8"/><rect class="cls-2" x="1" y="1" width="46" height="46" rx="8" ry="8"/></g><g id="_Group_2" data-name="&lt;Group&gt;"><circle class="cls-3" cx="35" cy="8" r="2"/><circle class="cls-4" cx="24" cy="26" r="7"/><path class="cls-5" d="M24,15A11,11,0,1,1,13,26,10.994,10.994,0,0,1,24,15Zm7,11a7,7,0,1,0-7,7A6.995,6.995,0,0,0,31,26Z"/><circle class="cls-2" cx="24" cy="26" r="11"/><circle class="cls-2" cx="24" cy="26" r="7"/><circle class="cls-2" cx="35" cy="8" r="2"/></g></g></svg>