<svg xmlns="http://www.w3.org/2000/svg" width="48" height="48" viewBox="0 0 48 48"><defs><style>.cls-1{fill:#49aaee;}.cls-2{fill:none;stroke:#474c54;stroke-linecap:round;stroke-linejoin:round;stroke-width:2px;}</style></defs><title>30-Twitter</title><g id="_30-Twitter" data-name="30-Twitter"><g id="_Group_" data-name="&lt;Group&gt;"><path class="cls-1" d="M21,11H34a3,3,0,0,1,3,3v2a3,3,0,0,1-3,3H21V34s0,5,5,5h8a3,3,0,0,1,3,3v2a3,3,0,0,1-3,3H23C13,47,13,37,13,37V4a3,3,0,0,1,3-3h2a3,3,0,0,1,3,3v7Z"/><path class="cls-2" d="M21,11H34a3,3,0,0,1,3,3v2a3,3,0,0,1-3,3H21V34s0,5,5,5h8a3,3,0,0,1,3,3v2a3,3,0,0,1-3,3H23C13,47,13,37,13,37V4a3,3,0,0,1,3-3h2a3,3,0,0,1,3,3V7"/><line class="cls-2" x1="18" y1="11" x2="21" y2="11"/></g></g></svg>