<svg xmlns="http://www.w3.org/2000/svg" width="48" height="48" viewBox="0 0 48 48"><defs><style>.cls-1{fill:#f1f2f2;}.cls-2{fill:#49aaee;}.cls-3{fill:none;stroke:#474c54;stroke-linecap:round;stroke-linejoin:round;stroke-width:2px;}</style></defs><title>4-Facebook</title><g id="_4-Facebook" data-name="4-Facebook"><g id="_Group_" data-name="&lt;Group&gt;"><path class="cls-1" d="M35,23l-2,7H27V47H19V30H13V23h6V11a2.938,2.938,0,0,1,3-3H34v7H27v8Z"/><path class="cls-2" d="M47,9V39a8,8,0,0,1-8,8H27V30h6l2-7H27V15h7V8H22a2.938,2.938,0,0,0-3,3V23H13v7h6V47H9a8,8,0,0,1-8-8V9A8,8,0,0,1,9,1H39A8,8,0,0,1,47,9Z"/><path class="cls-3" d="M27,47V30h6l2-7H27V15h7V8H22a2.938,2.938,0,0,0-3,3V23H13v7h6V42"/><path class="cls-3" d="M27,47H39a8,8,0,0,0,8-8V9a8,8,0,0,0-8-8H9A8,8,0,0,0,1,9V39a8,8,0,0,0,8,8H23"/></g></g></svg>