<svg xmlns="http://www.w3.org/2000/svg" width="48" height="48" viewBox="0 0 48 48"><defs><style>.cls-1{fill:#f1f2f2;}.cls-2{fill:#fa5c66;}.cls-3{fill:none;stroke:#474c54;stroke-linecap:round;stroke-linejoin:round;stroke-width:2px;}</style></defs><title>8-Youtube</title><g id="_8-Youtube" data-name="8-Youtube"><g id="_Group_" data-name="&lt;Group&gt;"><polygon class="cls-1" points="28 24 20 28 20 20 28 24"/><path class="cls-2" d="M47,14V34a6,6,0,0,1-6,6H7a6,6,0,0,1-6-6V14A6,6,0,0,1,7,8H41A6,6,0,0,1,47,14ZM20,28l8-4-8-4Z"/><rect class="cls-3" x="1" y="8" width="46" height="32" rx="6" ry="6"/><polygon class="cls-3" points="20 28 20 20 28 24 20 28"/></g></g></svg>